<?xml version="1.0" standalone="no"?>
<!DOCTYPE svg PUBLIC "-//W3C//DTD SVG 1.1//EN" "http://www.w3.org/Graphics/SVG/1.1/DTD/svg11.dtd">
<svg xmlns="http://www.w3.org/2000/svg" width="361" height="48" viewBox="0 0 361 48" fill="none">
<path d="M25.5873 28.1795L16.1869 45.7178C15.6343 46.7488 16.376 48 17.5396 48H35.5552C36.1043 48 36.6117 47.7051 36.8863 47.2263L47.7941 28.2069C48.0636 27.7369 48.0689 27.1591 47.8079 26.6843L36.8813 6.79838C36.6106 6.30575 36.0955 6 35.5363 6H17.1931C16.0332 6 15.2912 7.24396 15.8364 8.27464L25.5913 26.7174C25.8332 27.1747 25.8317 27.7235 25.5873 28.1795Z" fill="#67C471"/>
<path d="M5.29042 28.1876L0.40393 37.1604C-0.15765 38.1916 0.583542 39.4517 1.7517 39.4517H11.0224C11.5677 39.4517 12.0722 39.1608 12.3482 38.6872L18.4504 28.2151C18.7269 27.7404 18.7323 27.1537 18.4645 26.674L12.3433 15.7097C12.0712 15.2222 11.5589 14.9204 11.0034 14.9204H1.53919C0.374807 14.9204 -0.366744 16.1731 0.187324 17.2041L5.29451 26.7074C5.54285 27.1695 5.54131 27.7269 5.29042 28.1876Z" fill="#67C471"/>
<path d="M106.644 13.32C104.663 12.28 102.378 11.76 99.79 11.76C96.6765 11.76 93.9067 12.5 91.4805 13.98C90.1213 14.8232 88.972 15.8353 88.0328 17.0161C87.2691 15.8056 86.2954 14.8135 85.112 14.04C82.888 12.52 80.2799 11.76 77.2877 11.76C74.619 11.76 72.2333 12.34 70.1306 13.5C68.9461 14.1433 67.915 14.9648 67.0373 15.9645V12.24H58V44.52H67.4619V28.32C67.4619 26.4 67.7652 24.82 68.3717 23.58C68.9782 22.34 69.8274 21.42 70.9191 20.82C72.0109 20.18 73.2442 19.86 74.619 19.86C76.6003 19.86 78.1166 20.48 79.168 21.72C80.2597 22.96 80.8056 24.88 80.8056 27.48V44.52H90.2675V28.32C90.2675 26.4 90.5708 24.82 91.1773 23.58C91.7838 22.34 92.633 21.42 93.7247 20.82C94.8165 20.18 96.0498 19.86 97.4246 19.86C99.4059 19.86 100.942 20.48 102.034 21.72C103.126 22.96 103.672 24.88 103.672 27.48V44.52H113.134V26.04C113.134 22.76 112.547 20.08 111.375 18C110.243 15.88 108.666 14.32 106.644 13.32Z" fill="white"/>
<path fill-rule="evenodd" clip-rule="evenodd" d="M125.491 42.84C128.321 44.28 131.597 45 135.317 45C138.268 45 140.877 44.56 143.141 43.68C145.405 42.76 147.286 41.46 148.782 39.78L143.747 34.38C142.656 35.42 141.443 36.2 140.108 36.72C138.814 37.24 137.298 37.5 135.559 37.5C133.618 37.5 131.92 37.16 130.464 36.48C129.049 35.76 127.937 34.74 127.128 33.42C126.71 32.6793 126.406 31.8793 126.215 31.02H150.905C150.945 30.62 150.985 30.2 151.026 29.76C151.066 29.28 151.086 28.86 151.086 28.5C151.086 25.02 150.338 22.04 148.842 19.56C147.346 17.04 145.304 15.12 142.716 13.8C140.169 12.44 137.298 11.76 134.104 11.76C130.788 11.76 127.816 12.48 125.188 13.92C122.559 15.32 120.477 17.28 118.94 19.8C117.444 22.28 116.696 25.14 116.696 28.38C116.696 31.58 117.464 34.44 119.001 36.96C120.538 39.44 122.701 41.4 125.491 42.84ZM126.106 25.56C126.263 24.5601 126.564 23.6601 127.007 22.86C127.695 21.58 128.645 20.6 129.858 19.92C131.111 19.2 132.547 18.84 134.164 18.84C135.782 18.84 137.197 19.2 138.41 19.92C139.623 20.6 140.573 21.56 141.261 22.8C141.717 23.6231 142.022 24.5431 142.175 25.56H126.106Z" fill="white"/>
<path d="M181.405 13.32C179.383 12.28 177.078 11.76 174.49 11.76C171.7 11.76 169.213 12.34 167.03 13.5C165.742 14.1841 164.63 15.0422 163.694 16.0742V12.24H154.657V44.52H164.118V28.56C164.118 26.56 164.442 24.92 165.089 23.64C165.776 22.36 166.706 21.42 167.879 20.82C169.092 20.18 170.447 19.86 171.943 19.86C174.045 19.86 175.663 20.48 176.795 21.72C177.968 22.96 178.554 24.88 178.554 27.48V44.52H188.016V26.04C188.016 22.76 187.429 20.08 186.257 18C185.084 15.88 183.467 14.32 181.405 13.32Z" fill="white"/>
<path d="M198.23 42.12C200.373 44.04 203.365 45 207.207 45C208.662 45 210.057 44.84 211.392 44.52C212.767 44.16 213.939 43.64 214.91 42.96L212.362 36.36C211.311 37.16 210.037 37.56 208.541 37.56C207.288 37.56 206.297 37.2 205.569 36.48C204.841 35.72 204.477 34.66 204.477 33.3V20.16H212.605V12.96H204.477V5.1H195.015V12.96H189.981V20.16H195.015V33.42C195.015 37.26 196.087 40.16 198.23 42.12Z" fill="white"/>
<path fill-rule="evenodd" clip-rule="evenodd" d="M222.732 42.84C225.441 44.28 228.535 45 232.012 45C235.449 45 238.522 44.28 241.231 42.84C243.94 41.4 246.063 39.44 247.6 36.96C249.136 34.44 249.905 31.58 249.905 28.38C249.905 25.1 249.136 22.22 247.6 19.74C246.063 17.26 243.94 15.32 241.231 13.92C238.522 12.48 235.449 11.76 232.012 11.76C228.535 11.76 225.441 12.48 222.732 13.92C220.063 15.32 217.941 17.28 216.364 19.8C214.827 22.28 214.059 25.14 214.059 28.38C214.059 31.58 214.827 34.44 216.364 36.96C217.941 39.44 220.063 41.4 222.732 42.84ZM236.258 36.24C235.004 36.96 233.589 37.32 232.012 37.32C230.435 37.32 229.02 36.96 227.766 36.24C226.513 35.52 225.502 34.5 224.734 33.18C224.006 31.82 223.642 30.22 223.642 28.38C223.642 26.5 224.006 24.9 224.734 23.58C225.502 22.26 226.513 21.24 227.766 20.52C229.02 19.8 230.435 19.44 232.012 19.44C233.589 19.44 235.004 19.8 236.258 20.52C237.511 21.24 238.502 22.26 239.23 23.58C239.958 24.9 240.322 26.5 240.322 28.38C240.322 30.22 239.958 31.82 239.23 33.18C238.502 34.5 237.511 35.52 236.258 36.24Z" fill="white"/>
<path d="M262.537 12.24H253.5V44.52H262.962V29.28C262.962 26.2 263.75 23.94 265.327 22.5C266.945 21.02 269.047 20.28 271.635 20.28C271.999 20.28 272.343 20.3 272.666 20.34C272.99 20.34 273.354 20.36 273.758 20.4V11.76C270.685 11.76 268.077 12.36 265.934 13.56C264.561 14.303 263.429 15.2759 262.537 16.4785V12.24Z" fill="white"/>
<path d="M276.714 0V44.52H286.176V0H276.714Z" fill="white"/>
<path fill-rule="evenodd" clip-rule="evenodd" d="M298.596 42.84C301.427 44.28 304.702 45 308.422 45C311.374 45 313.982 44.56 316.246 43.68C318.511 42.76 320.391 41.46 321.887 39.78L316.853 34.38C315.761 35.42 314.548 36.2 313.214 36.72C311.92 37.24 310.404 37.5 308.665 37.5C306.724 37.5 305.026 37.16 303.57 36.48C302.155 35.76 301.043 34.74 300.234 33.42C299.816 32.6793 299.511 31.8793 299.321 31.02H324.01C324.051 30.62 324.091 30.2 324.131 29.76C324.172 29.28 324.192 28.86 324.192 28.5C324.192 25.02 323.444 22.04 321.948 19.56C320.452 17.04 318.41 15.12 315.822 13.8C313.274 12.44 310.404 11.76 307.209 11.76C303.893 11.76 300.921 12.48 298.293 13.92C295.665 15.32 293.582 17.28 292.046 19.8C290.55 22.28 289.802 25.14 289.802 28.38C289.802 31.58 290.57 34.44 292.107 36.96C293.643 39.44 295.806 41.4 298.596 42.84ZM299.211 25.56C299.369 24.5601 299.669 23.6601 300.113 22.86C300.8 21.58 301.75 20.6 302.963 19.92C304.217 19.2 305.652 18.84 307.27 18.84C308.887 18.84 310.302 19.2 311.516 19.92C312.729 20.6 313.679 21.56 314.366 22.8C314.823 23.6231 315.127 24.5431 315.281 25.56H299.211Z" fill="white"/>
<path fill-rule="evenodd" clip-rule="evenodd" d="M333.463 42.96C335.93 44.32 338.7 45 341.773 45C344.644 45 347.09 44.4 349.112 43.2C350.196 42.569 351.147 41.7665 351.963 40.7926V44.52H361V0H351.538V15.6061C350.787 14.7932 349.938 14.1112 348.991 13.56C346.928 12.36 344.523 11.76 341.773 11.76C338.7 11.76 335.93 12.44 333.463 13.8C330.997 15.16 329.036 17.08 327.58 19.56C326.165 22.04 325.457 24.98 325.457 28.38C325.457 31.74 326.165 34.66 327.58 37.14C329.036 39.62 330.997 41.56 333.463 42.96ZM347.596 36.24C346.342 36.96 344.947 37.32 343.411 37.32C341.834 37.32 340.418 36.96 339.165 36.24C337.911 35.52 336.9 34.5 336.132 33.18C335.404 31.82 335.04 30.22 335.04 28.38C335.04 26.5 335.404 24.9 336.132 23.58C336.9 22.26 337.911 21.24 339.165 20.52C340.418 19.8 341.834 19.44 343.411 19.44C344.947 19.44 346.342 19.8 347.596 20.52C348.849 21.24 349.84 22.26 350.568 23.58C351.336 24.9 351.72 26.5 351.72 28.38C351.72 30.22 351.336 31.82 350.568 33.18C349.84 34.5 348.849 35.52 347.596 36.24Z" fill="white"/>
</svg>